# Blender 3.1.0
# www.blender.org
mtllib MidRange.mtl
o Cylinder
v -0.000000 -0.650000 -6.372439
v 1.243201 -0.650000 -6.249994
v 2.438627 -0.650000 -5.887365
v 3.540337 -0.650000 -5.298489
v 4.505995 -0.650000 -4.505995
v 5.298489 -0.650000 -3.540337
v 5.887366 -0.650000 -2.438627
v 6.249994 -0.650000 -1.243201
v 6.372439 -0.650000 0.000000
v 6.249994 -0.650000 1.243201
v 5.887366 -0.650000 2.438627
v 5.298490 -0.650000 3.540337
v 4.505995 -0.650000 4.505995
v 3.540337 -0.650000 5.298490
v 2.438627 -0.650000 5.887366
v 1.243201 -0.650000 6.249994
v -0.000001 -0.650000 6.372439
v -1.243201 -0.650000 6.249994
v -2.438627 -0.650000 5.887366
v -3.540338 -0.650000 5.298489
v -4.505994 -0.650000 4.505995
v -5.298489 -0.650000 3.540339
v -5.887365 -0.650000 2.438628
v -6.249994 -0.650000 1.243202
v -6.372439 -0.650000 -0.000000
v -6.249994 -0.650000 -1.243202
v -5.887365 -0.650000 -2.438628
v -5.298490 -0.650000 -3.540336
v -4.505995 -0.650000 -4.505994
v -3.540338 -0.650000 -5.298489
v -2.438627 -0.650000 -5.887366
v -1.243201 -0.650000 -6.249994
v 0.000000 -0.354092 -7.331653
v 1.430334 -0.354092 -7.190777
v 2.805702 -0.354092 -6.773563
v 4.073248 -0.354092 -6.096045
v 5.184261 -0.354092 -5.184261
v 6.096045 -0.354092 -4.073248
v 6.773563 -0.354092 -2.805702
v 7.190777 -0.354092 -1.430335
v 7.331653 -0.354092 0.000000
v 7.190777 -0.354092 1.430334
v 6.773564 -0.354092 2.805702
v 6.096045 -0.354092 4.073247
v 5.184261 -0.354092 5.184261
v 4.073248 -0.354092 6.096045
v 2.805702 -0.354092 6.773563
v 1.430334 -0.354092 7.190777
v -0.000000 -0.354092 7.331653
v -1.430334 -0.354092 7.190777
v -2.805702 -0.354092 6.773563
v -4.073248 -0.354092 6.096045
v -5.184261 -0.354092 5.184262
v -6.096045 -0.354092 4.073249
v -6.773563 -0.354092 2.805703
v -7.190777 -0.354092 1.430335
v -7.331653 -0.354092 -0.000000
v -7.190777 -0.354092 -1.430335
v -6.773563 -0.354092 -2.805702
v -6.096047 -0.354092 -4.073247
v -5.184263 -0.354092 -5.184260
v -4.073248 -0.354092 -6.096045
v -2.805702 -0.354092 -6.773564
v -1.430334 -0.354092 -7.190777
v -0.000000 0.340365 -6.328176
v 1.234566 0.340365 -6.206581
v 2.421688 0.340365 -5.846472
v 3.515746 0.340365 -5.261685
v 4.474696 0.340365 -4.474696
v 5.261685 0.340365 -3.515746
v 5.846472 0.340365 -2.421688
v 6.206581 0.340365 -1.234566
v 6.328176 0.340365 0.000000
v 6.206582 0.340365 1.234566
v 5.846473 0.340365 2.421688
v 5.261686 0.340365 3.515746
v 4.474696 0.340365 4.474696
v 3.515746 0.340365 5.261686
v 2.421688 0.340365 5.846472
v 1.234566 0.340365 6.206582
v -0.000000 0.340365 6.328176
v -1.234565 0.340365 6.206582
v -2.421688 0.340365 5.846472
v -3.515746 0.340365 5.261685
v -4.474696 0.340365 4.474696
v -5.261685 0.340365 3.515747
v -5.846472 0.340365 2.421689
v -6.206581 0.340365 1.234566
v -6.328176 0.340365 -0.000000
v -6.206581 0.340365 -1.234566
v -5.846472 0.340365 -2.421689
v -5.261686 0.340365 -3.515746
v -4.474696 0.340365 -4.474696
v -3.515746 0.340365 -5.261685
v -2.421688 0.340365 -5.846472
v -1.234565 0.340365 -6.206582
v -0.000000 0.574636 -5.589860
v -0.000000 0.206958 -7.028946
v 1.090528 0.574636 -5.482452
v 1.371279 0.206958 -6.893887
v 2.139148 0.574636 -5.164357
v 2.689862 0.206958 -6.493899
v 3.105561 0.574636 -4.647799
v 3.905074 0.206958 -5.844355
v 3.952628 0.574636 -3.952628
v 4.970215 0.206958 -4.970215
v 4.647799 0.574636 -3.105561
v 5.844355 0.206958 -3.905074
v 5.164358 0.574636 -2.139147
v 6.493899 0.206958 -2.689861
v 5.482453 0.574636 -1.090528
v 6.893887 0.206958 -1.371280
v 5.589860 0.574636 -0.000000
v 7.028946 0.206958 0.000000
v 5.482453 0.574636 1.090527
v 6.893887 0.206958 1.371279
v 5.164358 0.574636 2.139146
v 6.493899 0.206958 2.689860
v 4.647799 0.574636 3.105560
v 5.844355 0.206958 3.905073
v 3.952628 0.574636 3.952629
v 4.970216 0.206958 4.970215
v 3.105559 0.574636 4.647800
v 3.905073 0.206958 5.844356
v 2.139147 0.574636 5.164358
v 2.689861 0.206958 6.493900
v 1.090527 0.574636 5.482452
v 1.371279 0.206958 6.893887
v -0.000000 0.574636 5.589861
v -0.000000 0.206958 7.028946
v -1.090526 0.574636 5.482453
v -1.371279 0.206958 6.893887
v -2.139146 0.574636 5.164358
v -2.689861 0.206958 6.493899
v -3.105560 0.574636 4.647799
v -3.905074 0.206958 5.844354
v -3.952629 0.574636 3.952628
v -4.970215 0.206958 4.970215
v -4.647799 0.574636 3.105561
v -5.844354 0.206958 3.905074
v -5.164357 0.574636 2.139147
v -6.493899 0.206958 2.689862
v -5.482452 0.574636 1.090527
v -6.893887 0.206958 1.371279
v -5.589860 0.574636 -0.000001
v -7.028946 0.206958 -0.000000
v -5.482452 0.574636 -1.090529
v -6.893887 0.206958 -1.371280
v -5.164357 0.574636 -2.139148
v -6.493899 0.206958 -2.689862
v -4.647799 0.574636 -3.105559
v -5.844356 0.206958 -3.905072
v -3.952629 0.574636 -3.952627
v -4.970216 0.206958 -4.970215
v -3.105560 0.574636 -4.647799
v -3.905074 0.206958 -5.844355
v -2.139147 0.574636 -5.164358
v -2.689861 0.206958 -6.493899
v -1.090528 0.574636 -5.482452
v -1.371279 0.206958 -6.893887
vn -0.7834 0.0283 -7.9539
vn 3.7676 0.0283 -7.0487
vn 5.0703 0.0283 -6.1782
vn 6.1782 0.0283 -5.0703
vn 7.0487 0.0283 -3.7676
vn 7.6482 0.0283 -2.3201
vn 7.9539 0.0283 -0.7834
vn 7.9539 0.0283 0.7834
vn 7.6482 0.0283 2.3201
vn 7.0487 0.0283 3.7676
vn 6.1782 0.0283 5.0703
vn 5.0703 0.0283 6.1782
vn 3.7676 0.0283 7.0487
vn 2.3201 0.0283 7.6482
vn 0.7834 0.0283 7.9539
vn -0.7834 0.0283 7.9539
vn -2.3201 0.0283 7.6482
vn -3.7676 0.0283 7.0487
vn -5.0703 0.0283 6.1782
vn -6.1782 0.0283 5.0703
vn -7.0487 0.0283 3.7676
vn -7.6482 0.0283 2.3201
vn -7.9539 0.0283 0.7834
vn -7.9539 0.0283 -0.7834
vn -7.6482 0.0283 -2.3201
vn -7.0487 0.0283 -3.7676
vn -6.1782 0.0283 -5.0703
vn -5.0703 0.0283 -6.1782
vn -3.7676 0.0283 -7.0487
vn -2.3201 0.0283 -7.6482
vn 0.7834 0.0283 -7.9539
vn 2.3201 0.0283 -7.6482
vn -0.7841 -0.0023 7.9614
vn 0.7585 -0.1648 -7.7013
vn 2.2464 -0.1648 -7.4054
vn 3.6479 -0.1648 -6.8248
vn 4.9093 -0.1648 -5.9820
vn 5.9820 -0.1648 -4.9093
vn 6.8248 -0.1648 -3.6479
vn 7.4054 -0.1648 -2.2464
vn 7.7013 -0.1648 -0.7585
vn 7.7013 -0.1648 0.7585
vn 7.4054 -0.1648 2.2464
vn 6.8248 -0.1648 3.6479
vn 5.9820 -0.1648 4.9093
vn 4.9093 -0.1648 5.9820
vn 3.6479 -0.1648 6.8248
vn 2.2464 -0.1648 7.4054
vn 0.7585 -0.1648 7.7013
vn -0.7585 -0.1648 7.7013
vn -2.2464 -0.1648 7.4054
vn -3.6479 -0.1648 6.8248
vn -4.9093 -0.1648 5.9820
vn -5.9820 -0.1648 4.9093
vn -6.8248 -0.1648 3.6479
vn -7.4054 -0.1648 2.2464
vn -7.7013 -0.1648 0.7585
vn -7.7013 -0.1648 -0.7585
vn -7.4054 -0.1648 -2.2464
vn -6.8248 -0.1648 -3.6479
vn -5.9820 -0.1648 -4.9093
vn -4.9093 -0.1648 -5.9820
vn -3.6479 -0.1648 -6.8248
vn -2.2464 -0.1648 -7.4054
vn -0.7585 -0.1648 -7.7013
vn -0.0000 -0.6500 -0.0000
vn 6.1840 -0.0023 5.0751
vn -2.3223 -0.0023 -7.6555
vn -2.3223 -0.0023 7.6555
vn 5.0751 -0.0023 6.1840
vn -0.7841 -0.0023 -7.9614
vn -3.7711 -0.0023 7.0553
vn 3.7712 -0.0023 7.0553
vn 0.7841 -0.0023 -7.9614
vn -5.0751 -0.0023 6.1840
vn 2.3223 -0.0023 7.6555
vn 2.3223 -0.0023 -7.6555
vn -6.1840 -0.0023 5.0751
vn 0.7841 -0.0023 7.9614
vn 3.7712 -0.0023 -7.0553
vn -7.0553 -0.0023 3.7711
vn 5.0751 -0.0023 -6.1840
vn -7.6555 -0.0023 2.3223
vn 6.1840 -0.0023 -5.0751
vn -7.9614 -0.0023 0.7841
vn 7.0553 -0.0023 -3.7711
vn -7.9614 -0.0023 -0.7841
vn 7.6555 -0.0023 -2.3223
vn -7.6555 -0.0023 -2.3223
vn 7.9614 -0.0023 -0.7841
vn -7.0553 -0.0023 -3.7712
vn 7.9614 -0.0023 0.7841
vn -6.1840 -0.0023 -5.0751
vn 7.6555 -0.0023 2.3223
vn -5.0751 -0.0023 -6.1840
vn 7.0553 -0.0023 3.7711
vn -3.7712 -0.0023 -7.0553
vn 0.7476 0.1961 -7.5904
vn 2.2140 0.1961 -7.2987
vn 3.5954 0.1961 -6.7265
vn 4.8386 0.1961 -5.8959
vn 5.8959 0.1961 -4.8386
vn 6.7265 0.1961 -3.5954
vn 7.2987 0.1961 -2.2140
vn 7.5904 0.1961 -0.7476
vn 7.5904 0.1961 0.7476
vn 7.2987 0.1961 2.2140
vn 6.7265 0.1961 3.5954
vn 5.8959 0.1961 4.8386
vn 4.8386 0.1961 5.8959
vn 3.5954 0.1961 6.7265
vn 2.2140 0.1961 7.2987
vn 0.7476 0.1961 7.5904
vn -0.7476 0.1961 7.5904
vn -2.2140 0.1961 7.2987
vn -3.5954 0.1961 6.7265
vn -4.8386 0.1961 5.8959
vn -5.8959 0.1961 4.8386
vn -6.7265 0.1961 3.5954
vn -7.2987 0.1961 2.2140
vn -7.5904 0.1961 0.7476
vn -7.5904 0.1961 -0.7476
vn -7.2987 0.1961 -2.2140
vn -6.7265 0.1961 -3.5954
vn -5.8959 0.1961 -4.8386
vn -4.8386 0.1961 -5.8959
vn -3.5954 0.1961 -6.7265
vn -2.2140 0.1961 -7.2987
vn -0.7476 0.1961 -7.5904
vn -0.0000 0.6500 -0.0000
vt 0.750000 0.441173
vt 0.787296 0.437500
vt 0.823159 0.426621
vt 0.856210 0.408955
vt 0.885180 0.385180
vt 0.908955 0.356210
vt 0.926621 0.323159
vt 0.937500 0.287296
vt 0.941173 0.250000
vt 0.937500 0.212704
vt 0.926621 0.176841
vt 0.908955 0.143790
vt 0.885180 0.114820
vt 0.856210 0.091045
vt 0.823159 0.073379
vt 0.787296 0.062500
vt 0.750000 0.058827
vt 0.712704 0.062500
vt 0.676841 0.073379
vt 0.643790 0.091045
vt 0.614820 0.114820
vt 0.591045 0.143790
vt 0.573379 0.176841
vt 0.562500 0.212704
vt 0.558827 0.250000
vt 0.562500 0.287296
vt 0.573379 0.323159
vt 0.591045 0.356210
vt 0.614820 0.385180
vt 0.643790 0.408955
vt 0.676841 0.426621
vt 0.712704 0.437500
vt 0.000000 0.500000
vt 1.000000 0.500000
vt 0.750000 0.490000
vt 0.968750 0.500000
vt 0.796822 0.485388
vt 0.937500 0.500000
vt 0.841844 0.471731
vt 0.906250 0.500000
vt 0.883337 0.449553
vt 0.875000 0.500000
vt 0.919706 0.419706
vt 0.843750 0.500000
vt 0.949553 0.383337
vt 0.812500 0.500000
vt 0.971731 0.341844
vt 0.781250 0.500000
vt 0.985388 0.296822
vt 0.750000 0.500000
vt 0.990000 0.250000
vt 0.718750 0.500000
vt 0.985388 0.203178
vt 0.687500 0.500000
vt 0.971731 0.158156
vt 0.656250 0.500000
vt 0.949553 0.116663
vt 0.625000 0.500000
vt 0.919706 0.080294
vt 0.593750 0.500000
vt 0.883337 0.050447
vt 0.562500 0.500000
vt 0.841844 0.028269
vt 0.531250 0.500000
vt 0.796822 0.014612
vt 0.500000 0.500000
vt 0.750000 0.010000
vt 0.468750 0.500000
vt 0.703178 0.014612
vt 0.437500 0.500000
vt 0.658156 0.028269
vt 0.406250 0.500000
vt 0.616663 0.050447
vt 0.375000 0.500000
vt 0.580294 0.080294
vt 0.343750 0.500000
vt 0.550447 0.116663
vt 0.312500 0.500000
vt 0.528269 0.158156
vt 0.281250 0.500000
vt 0.514612 0.203178
vt 0.250000 0.500000
vt 0.510000 0.250000
vt 0.218750 0.500000
vt 0.514612 0.296822
vt 0.187500 0.500000
vt 0.528269 0.341844
vt 0.156250 0.500000
vt 0.550447 0.383337
vt 0.125000 0.500000
vt 0.580294 0.419706
vt 0.093750 0.500000
vt 0.616663 0.449553
vt 0.062500 0.500000
vt 0.658156 0.471731
vt 0.031250 0.500000
vt 0.703178 0.485388
vt 0.750000 0.441173
vt 0.787296 0.437500
vt 0.823159 0.426621
vt 0.856210 0.408955
vt 0.885180 0.385180
vt 0.908955 0.356210
vt 0.926621 0.323159
vt 0.937500 0.287296
vt 0.941173 0.250000
vt 0.937500 0.212704
vt 0.926621 0.176841
vt 0.908955 0.143790
vt 0.885180 0.114820
vt 0.856210 0.091045
vt 0.823159 0.073379
vt 0.787296 0.062500
vt 0.750000 0.058827
vt 0.712704 0.062500
vt 0.676841 0.073379
vt 0.643790 0.091045
vt 0.614820 0.114820
vt 0.591045 0.143790
vt 0.573379 0.176841
vt 0.562500 0.212704
vt 0.558827 0.250000
vt 0.562500 0.287296
vt 0.573379 0.323159
vt 0.591045 0.356210
vt 0.614820 0.385180
vt 0.643790 0.408955
vt 0.676841 0.426621
vt 0.712704 0.437500
vt 0.994652 1.000000
vt 0.005348 1.000000
vt 0.250000 0.407849
vt 1.000000 0.914838
vt 0.000000 0.914838
vt 0.974098 1.000000
vt 0.963402 1.000000
vt 0.280795 0.404816
vt 0.968750 0.914838
vt 0.942848 1.000000
vt 0.932152 1.000000
vt 0.310406 0.395833
vt 0.937500 0.914838
vt 0.911598 1.000000
vt 0.900902 1.000000
vt 0.337696 0.381246
vt 0.906250 0.914838
vt 0.880348 1.000000
vt 0.869652 1.000000
vt 0.361616 0.361616
vt 0.875000 0.914838
vt 0.849098 1.000000
vt 0.838402 1.000000
vt 0.381246 0.337696
vt 0.843750 0.914838
vt 0.817848 1.000000
vt 0.807152 1.000000
vt 0.395833 0.310406
vt 0.812500 0.914838
vt 0.786598 1.000000
vt 0.775902 1.000000
vt 0.404816 0.280795
vt 0.781250 0.914838
vt 0.755348 1.000000
vt 0.744652 1.000000
vt 0.407849 0.250000
vt 0.750000 0.914838
vt 0.724098 1.000000
vt 0.713402 1.000000
vt 0.404816 0.219205
vt 0.718750 0.914838
vt 0.692848 1.000000
vt 0.682152 1.000000
vt 0.395833 0.189594
vt 0.687500 0.914838
vt 0.661598 1.000000
vt 0.650902 1.000000
vt 0.381246 0.162304
vt 0.656250 0.914838
vt 0.630348 1.000000
vt 0.619652 1.000000
vt 0.361616 0.138384
vt 0.625000 0.914838
vt 0.599098 1.000000
vt 0.588402 1.000000
vt 0.337696 0.118754
vt 0.593750 0.914838
vt 0.567848 1.000000
vt 0.557152 1.000000
vt 0.310406 0.104167
vt 0.562500 0.914838
vt 0.536598 1.000000
vt 0.525902 1.000000
vt 0.280795 0.095184
vt 0.531250 0.914838
vt 0.505348 1.000000
vt 0.494652 1.000000
vt 0.250000 0.092151
vt 0.500000 0.914838
vt 0.474098 1.000000
vt 0.463402 1.000000
vt 0.219205 0.095184
vt 0.468750 0.914838
vt 0.442848 1.000000
vt 0.432152 1.000000
vt 0.189594 0.104167
vt 0.437500 0.914838
vt 0.411598 1.000000
vt 0.400902 1.000000
vt 0.162304 0.118754
vt 0.406250 0.914838
vt 0.380348 1.000000
vt 0.369652 1.000000
vt 0.138384 0.138384
vt 0.375000 0.914838
vt 0.349098 1.000000
vt 0.338402 1.000000
vt 0.118754 0.162304
vt 0.343750 0.914838
vt 0.317848 1.000000
vt 0.307152 1.000000
vt 0.104167 0.189594
vt 0.312500 0.914838
vt 0.286598 1.000000
vt 0.275902 1.000000
vt 0.095184 0.219205
vt 0.281250 0.914838
vt 0.255348 1.000000
vt 0.244652 1.000000
vt 0.092151 0.250000
vt 0.250000 0.914838
vt 0.224098 1.000000
vt 0.213402 1.000000
vt 0.095184 0.280795
vt 0.218750 0.914838
vt 0.192848 1.000000
vt 0.182152 1.000000
vt 0.104167 0.310406
vt 0.187500 0.914838
vt 0.161598 1.000000
vt 0.150902 1.000000
vt 0.118754 0.337696
vt 0.156250 0.914838
vt 0.130348 1.000000
vt 0.119652 1.000000
vt 0.138384 0.361616
vt 0.125000 0.914838
vt 0.099098 1.000000
vt 0.088402 1.000000
vt 0.162304 0.381246
vt 0.093750 0.914838
vt 0.067848 1.000000
vt 0.057152 1.000000
vt 0.189594 0.395833
vt 0.062500 0.914838
vt 0.036598 1.000000
vt 0.025902 1.000000
vt 0.219205 0.404816
vt 0.031250 0.914838
s 0
f 64/96/1 160/258/1 98/134/1 33/33/1
f 35/38/2 102/142/2 104/146/2 36/40/2
f 36/40/3 104/146/3 106/150/3 37/42/3
f 37/42/4 106/150/4 108/154/4 38/44/4
f 38/44/5 108/154/5 110/158/5 39/46/5
f 39/46/6 110/158/6 112/162/6 40/48/6
f 40/48/7 112/162/7 114/166/7 41/50/7
f 41/50/8 114/166/8 116/170/8 42/52/8
f 42/52/9 116/170/9 118/174/9 43/54/9
f 43/54/10 118/174/10 120/178/10 44/56/10
f 44/56/11 120/178/11 122/182/11 45/58/11
f 45/58/12 122/182/12 124/186/12 46/60/12
f 46/60/13 124/186/13 126/190/13 47/62/13
f 47/62/14 126/190/14 128/194/14 48/64/14
f 48/64/15 128/194/15 130/198/15 49/66/15
f 49/66/16 130/198/16 132/202/16 50/68/16
f 50/68/17 132/202/17 134/206/17 51/70/17
f 51/70/18 134/206/18 136/210/18 52/72/18
f 52/72/19 136/210/19 138/214/19 53/74/19
f 53/74/20 138/214/20 140/218/20 54/76/20
f 54/76/21 140/218/21 142/222/21 55/78/21
f 55/78/22 142/222/22 144/226/22 56/80/22
f 56/80/23 144/226/23 146/230/23 57/82/23
f 57/82/24 146/230/24 148/234/24 58/84/24
f 58/84/25 148/234/25 150/238/25 59/86/25
f 59/86/26 150/238/26 152/242/26 60/88/26
f 60/88/27 152/242/27 154/246/27 61/90/27
f 61/90/28 154/246/28 156/250/28 62/92/28
f 62/92/29 156/250/29 158/254/29 63/94/29
f 63/94/30 158/254/30 160/258/30 64/96/30
f 33/34/31 98/133/31 100/138/31 34/36/31
f 34/36/32 100/138/32 102/142/32 35/38/32
f 1/1/33 2/2/33 66/99/33 65/98/33
f 2/2/34 1/1/34 33/35/34 34/37/34
f 3/3/35 2/2/35 34/37/35 35/39/35
f 4/4/36 3/3/36 35/39/36 36/41/36
f 5/5/37 4/4/37 36/41/37 37/43/37
f 6/6/38 5/5/38 37/43/38 38/45/38
f 7/7/39 6/6/39 38/45/39 39/47/39
f 8/8/40 7/7/40 39/47/40 40/49/40
f 9/9/41 8/8/41 40/49/41 41/51/41
f 10/10/42 9/9/42 41/51/42 42/53/42
f 11/11/43 10/10/43 42/53/43 43/55/43
f 12/12/44 11/11/44 43/55/44 44/57/44
f 13/13/45 12/12/45 44/57/45 45/59/45
f 14/14/46 13/13/46 45/59/46 46/61/46
f 15/15/47 14/14/47 46/61/47 47/63/47
f 16/16/48 15/15/48 47/63/48 48/65/48
f 17/17/49 16/16/49 48/65/49 49/67/49
f 18/18/50 17/17/50 49/67/50 50/69/50
f 19/19/51 18/18/51 50/69/51 51/71/51
f 20/20/52 19/19/52 51/71/52 52/73/52
f 21/21/53 20/20/53 52/73/53 53/75/53
f 22/22/54 21/21/54 53/75/54 54/77/54
f 23/23/55 22/22/55 54/77/55 55/79/55
f 24/24/56 23/23/56 55/79/56 56/81/56
f 25/25/57 24/24/57 56/81/57 57/83/57
f 26/26/58 25/25/58 57/83/58 58/85/58
f 27/27/59 26/26/59 58/85/59 59/87/59
f 28/28/60 27/27/60 59/87/60 60/89/60
f 29/29/61 28/28/61 60/89/61 61/91/61
f 30/30/62 29/29/62 61/91/62 62/93/62
f 31/31/63 30/30/63 62/93/63 63/95/63
f 32/32/64 31/31/64 63/95/64 64/97/64
f 1/1/65 32/32/65 64/97/65 33/35/65
f 65/98/66 66/99/66 67/100/66 68/101/66 69/102/66 70/103/66 71/104/66 72/105/66 73/106/66 74/107/66 75/108/66 76/109/66 77/110/66 78/111/66 79/112/66 80/113/66 81/114/66 82/115/66 83/116/66 84/117/66 85/118/66 86/119/66 87/120/66 88/121/66 89/122/66 90/123/66 91/124/66 92/125/66 93/126/66 94/127/66 95/128/66 96/129/66
f 28/28/67 29/29/67 93/126/67 92/125/67
f 15/15/68 16/16/68 80/113/68 79/112/68
f 2/2/69 3/3/69 67/100/69 66/99/69
f 29/29/70 30/30/70 94/127/70 93/126/70
f 16/16/71 17/17/71 81/114/71 80/113/71
f 3/3/72 4/4/72 68/101/72 67/100/72
f 30/30/73 31/31/73 95/128/73 94/127/73
f 17/17/74 18/18/74 82/115/74 81/114/74
f 4/4/75 5/5/75 69/102/75 68/101/75
f 31/31/76 32/32/76 96/129/76 95/128/76
f 18/18/77 19/19/77 83/116/77 82/115/77
f 5/5/78 6/6/78 70/103/78 69/102/78
f 32/32/79 1/1/79 65/98/79 96/129/79
f 19/19/80 20/20/80 84/117/80 83/116/80
f 6/6/81 7/7/81 71/104/81 70/103/81
f 20/20/82 21/21/82 85/118/82 84/117/82
f 7/7/83 8/8/83 72/105/83 71/104/83
f 21/21/84 22/22/84 86/119/84 85/118/84
f 8/8/85 9/9/85 73/106/85 72/105/85
f 22/22/86 23/23/86 87/120/86 86/119/86
f 9/9/87 10/10/87 74/107/87 73/106/87
f 23/23/88 24/24/88 88/121/88 87/120/88
f 10/10/89 11/11/89 75/108/89 74/107/89
f 24/24/90 25/25/90 89/122/90 88/121/90
f 11/11/91 12/12/91 76/109/91 75/108/91
f 25/25/92 26/26/92 90/123/92 89/122/92
f 12/12/93 13/13/93 77/110/93 76/109/93
f 26/26/94 27/27/94 91/124/94 90/123/94
f 13/13/95 14/14/95 78/111/95 77/110/95
f 27/27/96 28/28/96 92/125/96 91/124/96
f 14/14/97 15/15/97 79/112/97 78/111/97
f 100/138/98 98/133/98 97/130/98 99/135/98
f 102/142/99 100/138/99 99/136/99 101/139/99
f 104/146/100 102/142/100 101/140/100 103/143/100
f 106/150/101 104/146/101 103/144/101 105/147/101
f 108/154/102 106/150/102 105/148/102 107/151/102
f 110/158/103 108/154/103 107/152/103 109/155/103
f 112/162/104 110/158/104 109/156/104 111/159/104
f 114/166/105 112/162/105 111/160/105 113/163/105
f 116/170/106 114/166/106 113/164/106 115/167/106
f 118/174/107 116/170/107 115/168/107 117/171/107
f 120/178/108 118/174/108 117/172/108 119/175/108
f 122/182/109 120/178/109 119/176/109 121/179/109
f 124/186/110 122/182/110 121/180/110 123/183/110
f 126/190/111 124/186/111 123/184/111 125/187/111
f 128/194/112 126/190/112 125/188/112 127/191/112
f 130/198/113 128/194/113 127/192/113 129/195/113
f 132/202/114 130/198/114 129/196/114 131/199/114
f 134/206/115 132/202/115 131/200/115 133/203/115
f 136/210/116 134/206/116 133/204/116 135/207/116
f 138/214/117 136/210/117 135/208/117 137/211/117
f 140/218/118 138/214/118 137/212/118 139/215/118
f 142/222/119 140/218/119 139/216/119 141/219/119
f 144/226/120 142/222/120 141/220/120 143/223/120
f 146/230/121 144/226/121 143/224/121 145/227/121
f 148/234/122 146/230/122 145/228/122 147/231/122
f 150/238/123 148/234/123 147/232/123 149/235/123
f 152/242/124 150/238/124 149/236/124 151/239/124
f 154/246/125 152/242/125 151/240/125 153/243/125
f 156/250/126 154/246/126 153/244/126 155/247/126
f 158/254/127 156/250/127 155/248/127 157/251/127
f 160/258/128 158/254/128 157/252/128 159/255/128
f 98/134/129 160/258/129 159/256/129 97/131/129
f 99/137/130 97/132/130 159/257/130 157/253/130 155/249/130 153/245/130 151/241/130 149/237/130 147/233/130 145/229/130 143/225/130 141/221/130 139/217/130 137/213/130 135/209/130 133/205/130 131/201/130 129/197/130 127/193/130 125/189/130 123/185/130 121/181/130 119/177/130 117/173/130 115/169/130 113/165/130 111/161/130 109/157/130 107/153/130 105/149/130 103/145/130 101/141/130
